<svg width="25" height="24" viewBox="0 0 25 24" fill="none" xmlns="http://www.w3.org/2000/svg">
<path d="M8.11938 0V5.52537L16.303 11.5067C16.3776 11.5631 16.4384 11.6372 16.4804 11.7229C16.5223 11.8087 16.5442 11.9037 16.5442 12C16.5442 12.0963 16.5223 12.1913 16.4804 12.2771C16.4384 12.3628 16.3776 12.4369 16.303 12.4933L8.11938 18.4746V24L23.7157 12.5997C23.8079 12.5319 23.8833 12.442 23.9353 12.3373C23.9872 12.2327 24.0144 12.1164 24.0144 11.9985C24.0144 11.8805 23.9872 11.7643 23.9353 11.6596C23.8833 11.555 23.8079 11.465 23.7157 11.3973L8.11938 0Z" fill="white"/>
<path d="M3.53937 4.03723V8.27968L7.98322 11.528C8.05898 11.5832 8.12088 11.6567 8.16363 11.7423C8.20637 11.8279 8.2287 11.9231 8.2287 12.0198C8.2287 12.1164 8.20637 12.2116 8.16363 12.2972C8.12088 12.3828 8.05898 12.4563 7.98322 12.5115L3.53937 15.7598V20.0023L13.6451 12.6209C13.7376 12.5536 13.8132 12.4638 13.8654 12.3593C13.9177 12.2547 13.9449 12.1385 13.9449 12.0205C13.9449 11.9025 13.9177 11.7863 13.8654 11.6817C13.8132 11.5772 13.7376 11.4874 13.6451 11.4201L3.53937 4.03723Z" fill="white"/>
<path d="M-1.10761e-07 7.49399V10.1662L1.79003 11.4735C1.86467 11.5298 1.92547 11.6039 1.9674 11.6897C2.00933 11.7754 2.03119 11.8704 2.03119 11.9667C2.03119 12.0631 2.00933 12.158 1.9674 12.2438C1.92547 12.3295 1.86467 12.4036 1.79003 12.46L-1.10761e-07 13.7687V16.4395L5.30039 12.5649C5.39263 12.4978 5.46799 12.4084 5.52004 12.3042C5.57209 12.2001 5.59927 12.0843 5.59927 11.9667C5.59927 11.8492 5.57209 11.7334 5.52004 11.6292C5.46799 11.525 5.39263 11.4356 5.30039 11.3686L-1.10761e-07 7.49399Z" fill="white"/>
</svg>
